<svg xmlns="http://www.w3.org/2000/svg" xmlns:xlink="http://www.w3.org/1999/xlink" width="1024" height="1024"><g transform="translate(193.167 148)"><g><defs><path d="M 363.5 0 C 498.946 -0 726.935 429.346 727 513.59 C 727.065 597.835 493.85 336.977 371.221 336.977 C 248.592 336.977 0.065 609.061 0 524.816 C -0.065 440.572 228.054 0 363.5 0 Z" transform="translate(-93 93) rotate(90 363.5 270.5)" id="a1000z"></path><filter id="a1002z" x="-0.7%" y="-1.3%" width="101.4%" height="102.6%" filterUnits="objectBoundingBox"><feGaussianBlur stdDeviation="2.5" in="SourceAlpha" result="a1004z"></feGaussianBlur><feOffset dx="0" dy="2" in="a1004z" result="a1005z"></feOffset><feComposite in="a1005z" in2="SourceAlpha" operator="arithmetic" k2="-1" k3="1" result="a1006z"></feComposite><feColorMatrix color-interpolation-filters="sRGB" values="0 0 0 0 0   0 0 0 0 0   0 0 0 0 0  0 0 0 0.25 0" type="matrix" in="a1006z" result="a1007z"></feColorMatrix></filter></defs><use xlink:href="#a1000z" fill="rgba(34, 170, 153, 0.15)" clip-path="url(#a1001z)"></use><use fill="black" fill-opacity="1" filter="url(#a1002z)" xlink:href="#a1000z"></use></g><g><defs><path d="M 363.5 0 C 498.946 -0 726.935 429.346 727 513.59 C 727.065 597.835 493.85 336.977 371.221 336.977 C 248.592 336.977 0.065 609.061 0 524.816 C -0.065 440.572 228.054 0 363.5 0 Z" transform="translate(-43.166 94) rotate(90 363.5 270.5)" id="a1008z"></path><filter id="a1010z" x="-0.7%" y="-1.3%" width="101.4%" height="102.6%" filterUnits="objectBoundingBox"><feGaussianBlur stdDeviation="2.5" in="SourceAlpha" result="a1012z"></feGaussianBlur><feOffset dx="0" dy="2" in="a1012z" result="a1013z"></feOffset><feComposite in="a1013z" in2="SourceAlpha" operator="arithmetic" k2="-1" k3="1" result="a1014z"></feComposite><feColorMatrix color-interpolation-filters="sRGB" values="0 0 0 0 0   0 0 0 0 0   0 0 0 0 0  0 0 0 0.25 0" type="matrix" in="a1014z" result="a1015z"></feColorMatrix></filter></defs><use xlink:href="#a1008z" fill="rgba(34, 170, 153, 0.4)" clip-path="url(#a1009z)"></use><use fill="black" fill-opacity="1" filter="url(#a1010z)" xlink:href="#a1008z"></use></g><g><defs><path d="M 363.5 0 C 498.946 -0 726.935 429.346 727 513.59 C 727.065 597.835 493.85 336.977 371.221 336.977 C 248.592 336.977 0.065 609.061 0 524.816 C -0.065 440.572 228.054 0 363.5 0 Z" transform="translate(3.833 94) rotate(90 363.5 270.5)" id="a1016z"></path><filter id="a1018z" x="-0.7%" y="-1.3%" width="101.4%" height="102.6%" filterUnits="objectBoundingBox"><feGaussianBlur stdDeviation="2.5" in="SourceAlpha" result="a1020z"></feGaussianBlur><feOffset dx="0" dy="2" in="a1020z" result="a1021z"></feOffset><feComposite in="a1021z" in2="SourceAlpha" operator="arithmetic" k2="-1" k3="1" result="a1022z"></feComposite><feColorMatrix color-interpolation-filters="sRGB" values="0 0 0 0 0   0 0 0 0 0   0 0 0 0 0  0 0 0 0.25 0" type="matrix" in="a1022z" result="a1023z"></feColorMatrix></filter></defs><use xlink:href="#a1016z" fill="#22AA99" clip-path="url(#a1017z)"></use><use fill="black" fill-opacity="1" filter="url(#a1018z)" xlink:href="#a1016z"></use></g><path d="M 567.041 363.517 C 567.041 399.173 538.141 428.077 502.492 428.077 C 466.842 428.077 437.942 399.173 437.942 363.517 C 437.942 327.862 466.842 298.958 502.492 298.958 C 538.141 298.958 567.041 327.862 567.041 363.517 Z" fill="#FFFFFF" stroke-width="10" stroke="#FFFFFF"></path><g transform="translate(218.974 273) rotate(90 185.523 97.994)"><g><path d="M 42.104 111.794 C 65.358 111.794 84.208 130.641 84.208 153.891 C 84.208 177.141 65.358 195.989 42.104 195.989 C 18.851 195.989 0 177.141 0 153.891 C 0 130.641 18.851 111.794 42.104 111.794 Z" fill="#FFFFFF" stroke-width="10" stroke="#FFFFFF"></path><path d="M 0 0 C 35.655 0 64.56 28.9 64.56 64.55" transform="translate(47.91 83.13) rotate(-2 32.28 32.275)" fill="transparent" stroke-width="15" stroke="#FFFFFF"></path><path d="M 91.046 103 L 186.046 0" fill="transparent" stroke-width="15" stroke="#FFFFFF"></path><g transform="translate(186 0)"><path d="M 142.942 111.794 C 119.689 111.794 100.838 130.641 100.838 153.891 C 100.838 177.141 119.689 195.989 142.942 195.989 C 166.196 195.989 185.046 177.141 185.046 153.891 C 185.046 130.641 166.196 111.794 142.942 111.794 Z" fill="#FFFFFF" stroke-width="10" stroke="#FFFFFF"></path><path d="M 68.905 0.16 C 33.337 -2.327 2.487 24.486 0 60.049" transform="translate(71.401 85.3) rotate(-2 34.453 30.024)" fill="transparent" stroke-width="15" stroke="#FFFFFF"></path><path d="M 95 103 L 0 0" fill="transparent" stroke-width="15" stroke="#FFFFFF"></path></g></g></g></g></svg>